<svg width="800" height="600" xmlns="http://www.w3.org/2000/svg">
  <!-- Background -->
  <rect width="800" height="600" fill="#f8f9fa" rx="10"/>
  
  <!-- Title -->
  <text x="400" y="50" font-family="Arial" font-size="24" text-anchor="middle" font-weight="bold">The Split Encoder Fix</text>

  <!-- Game Box -->
  <rect x="300" y="100" width="200" height="60" rx="5" fill="#e1f5fe" stroke="#0288d1" stroke-width="2"/>
  <text x="400" y="135" font-family="Arial" font-size="16" text-anchor="middle">PC Game</text>

  <!-- GPU Box -->
  <rect x="200" y="250" width="180" height="100" rx="5" fill="#e8f5e9" stroke="#2e7d32" stroke-width="2"/>
  <text x="290" y="280" font-family="Arial" font-size="16" text-anchor="middle" font-weight="bold">GPU (NVENC)</text>
  <text x="290" y="310" font-family="Arial" font-size="14" text-anchor="middle">Handles Game +</text>
  <text x="290" y="330" font-family="Arial" font-size="14" text-anchor="middle">Twitch Stream</text>

  <!-- CPU Box -->
  <rect x="420" y="250" width="180" height="100" rx="5" fill="#fff3e0" stroke="#ef6c00" stroke-width="2"/>
  <text x="510" y="280" font-family="Arial" font-size="16" text-anchor="middle" font-weight="bold">CPU (x264)</text>
  <text x="510" y="310" font-family="Arial" font-size="14" text-anchor="middle">Handles</text>
  <text x="510" y="330" font-family="Arial" font-size="14" text-anchor="middle">TikTok Stream</text>

  <!-- Arrows -->
  <line x1="400" y1="160" x2="400" y2="200" stroke="#333" stroke-width="2"/>
  <line x1="400" y1="200" x2="290" y2="200" stroke="#333" stroke-width="2"/>
  <line x1="400" y1="200" x2="510" y2="200" stroke="#333" stroke-width="2"/>
  <line x1="290" y1="200" x2="290" y2="250" stroke="#333" stroke-width="2" marker-end="url(#arrow)"/>
  <line x1="510" y1="200" x2="510" y2="250" stroke="#333" stroke-width="2" marker-end="url(#arrow)"/>

  <!-- Outputs -->
  <line x1="290" y1="350" x2="290" y2="450" stroke="#333" stroke-width="2" marker-end="url(#arrow)"/>
  <rect x="240" y="450" width="100" height="50" rx="5" fill="#f3e5f5" stroke="#7b1fa2" stroke-width="2"/>
  <text x="290" y="480" font-family="Arial" font-size="14" text-anchor="middle">Twitch (Smooth)</text>

  <line x1="510" y1="350" x2="510" y2="450" stroke="#333" stroke-width="2" marker-end="url(#arrow)"/>
  <rect x="460" y="450" width="100" height="50" rx="5" fill="#f3e5f5" stroke="#7b1fa2" stroke-width="2"/>
  <text x="510" y="480" font-family="Arial" font-size="14" text-anchor="middle">TikTok (Smooth)</text>

  <!-- Arrow Def -->
  <defs>
    <marker id="arrow" markerWidth="10" markerHeight="10" refX="9" refY="3" orient="auto" markerUnits="strokeWidth">
      <path d="M0,0 L0,6 L9,3 z" fill="#333" />
    </marker>
  </defs>
</svg>
