<svg width="800" height="600" xmlns="http://www.w3.org/2000/svg">
  <rect width="800" height="600" fill="#1a1a1a"/>
  
  <!-- Flowchart -->
  <rect x="300" y="30" width="200" height="60" rx="10" fill="#f9f" stroke="#333" stroke-width="2"/>
  <text x="400" y="65" font-family="Arial, sans-serif" font-size="14" font-weight="bold" text-anchor="middle" fill="#000">OBS Renders Frame</text>

  <line x1="400" y1="90" x2="200" y2="150" stroke="#FFFFFF" stroke-width="2"/>
  <line x1="400" y1="90" x2="600" y2="150" stroke="#FFFFFF" stroke-width="2"/>

  <rect x="100" y="150" width="200" height="60" rx="10" fill="#ccffcc" stroke="#00aa00" stroke-width="2"/>
  <text x="200" y="185" font-family="Arial, sans-serif" font-size="12" font-weight="bold" text-anchor="middle" fill="#000">GPU Encodes for Twitch</text>

  <rect x="500" y="150" width="200" height="60" rx="10" fill="#FFFFFF" stroke="#333" stroke-width="2"/>
  <text x="600" y="185" font-family="Arial, sans-serif" font-size="12" font-weight="bold" text-anchor="middle" fill="#000">Virtual Camera?</text>

  <line x1="600" y1="210" x2="600" y2="270" stroke="#FFFFFF" stroke-width="2"/>
  <rect x="500" y="270" width="200" height="60" rx="10" fill="#fdd" stroke="#c00" stroke-width="2"/>
  <text x="600" y="305" font-family="Arial, sans-serif" font-size="12" font-weight="bold" text-anchor="middle" fill="#000">Copy to RAM (Lags!)</text>

  <line x1="600" y1="330" x2="600" y2="390" stroke="#FFFFFF" stroke-width="2"/>
  <rect x="500" y="390" width="200" height="60" rx="10" fill="#FFFFFF" stroke="#333" stroke-width="2"/>
  <text x="600" y="425" font-family="Arial, sans-serif" font-size="12" font-weight="bold" text-anchor="middle" fill="#000">TikTok Studio</text>

  <line x1="600" y1="450" x2="400" y2="500" stroke="#FFFFFF" stroke-width="2"/>
  <line x1="200" y1="210" x2="400" y2="500" stroke="#FFFFFF" stroke-width="2"/>

  <rect x="300" y="500" width="200" height="60" rx="10" fill="#ffcccc" stroke="#ff0000" stroke-width="2"/>
  <text x="400" y="535" font-family="Arial, sans-serif" font-size="14" font-weight="bold" text-anchor="middle" fill="#000">Encoding Overload</text>
</svg>