<svg width="1200" height="700" viewBox="0 0 1200 700" xmlns="http://www.w3.org/2000/svg" role="img" aria-label="TikTok Live watch-time ladder diagram">
  <defs>
    <linearGradient id="panel" x1="0" y1="0" x2="1" y2="1">
      <stop offset="0%" stop-color="#f7f7fb"/>
      <stop offset="100%" stop-color="#eef0ff"/>
    </linearGradient>
    <filter id="cardShadow" x="-30%" y="-30%" width="160%" height="160%">
      <feGaussianBlur stdDeviation="8" result="b"/>
      <feColorMatrix in="b" type="matrix" values="0 0 0 0 0  0 0 0 0 0  0 0 0 0 0  0 0 0 0.18 0" result="s"/>
      <feMerge>
        <feMergeNode in="s"/>
        <feMergeNode in="SourceGraphic"/>
      </feMerge>
    </filter>
  </defs>

  <rect width="1200" height="700" rx="18" fill="url(#panel)"/>

  <text x="600" y="70" text-anchor="middle" font-family="Arial, Helvetica, sans-serif" font-size="34" font-weight="800" fill="#14162b">The Watch-Time Ladder</text>
  <text x="600" y="105" text-anchor="middle" font-family="Arial, Helvetica, sans-serif" font-size="18" fill="#4a4f77">Fix the bottom steps first to stop early drop-offs</text>

  <g filter="url(#cardShadow)">
    <rect x="140" y="150" width="920" height="90" rx="16" fill="#ffffff"/>
    <rect x="140" y="255" width="920" height="90" rx="16" fill="#ffffff"/>
    <rect x="140" y="360" width="920" height="90" rx="16" fill="#ffffff"/>
    <rect x="140" y="465" width="920" height="90" rx="16" fill="#ffffff"/>
    <rect x="140" y="570" width="920" height="90" rx="16" fill="#ffffff"/>
  </g>

  <g font-family="Arial, Helvetica, sans-serif">
    <text x="190" y="205" font-size="26" font-weight="800" fill="#14162b">1) Promise</text>
    <text x="380" y="205" font-size="20" fill="#4a4f77">What do I get if I stay?</text>

    <text x="190" y="310" font-size="26" font-weight="800" fill="#14162b">2) Clarity</text>
    <text x="380" y="310" font-size="20" fill="#4a4f77">Can I understand this on mobile?</text>

    <text x="190" y="415" font-size="26" font-weight="800" fill="#14162b">3) Interaction</text>
    <text x="380" y="415" font-size="20" fill="#4a4f77">Do I have a reason to type/tap?</text>

    <text x="190" y="520" font-size="26" font-weight="800" fill="#14162b">4) Loop</text>
    <text x="380" y="520" font-size="20" fill="#4a4f77">Does the stream reset every 2–3 minutes?</text>

    <text x="190" y="625" font-size="26" font-weight="800" fill="#14162b">5) Retention</text>
    <text x="380" y="625" font-size="20" fill="#4a4f77">More minutes watched → more distribution</text>
  </g>

  <g fill="none" stroke="#b7bce8" stroke-width="4" stroke-linecap="round">
    <path d="M1040 195 C1100 195 1100 300 1040 300"/>
    <path d="M1040 300 C1100 300 1100 405 1040 405"/>
    <path d="M1040 405 C1100 405 1100 510 1040 510"/>
    <path d="M1040 510 C1100 510 1100 615 1040 615"/>
  </g>
</svg>

