<svg width="1280" height="720" viewBox="0 0 1280 720" fill="none" xmlns="http://www.w3.org/2000/svg">
  <defs>
    <linearGradient id="bg" x1="0" y1="0" x2="1280" y2="720" gradientUnits="userSpaceOnUse">
      <stop stop-color="#0B1020" />
      <stop offset="1" stop-color="#111827" />
    </linearGradient>
    <linearGradient id="accent" x1="0" y1="0" x2="1" y2="1">
      <stop stop-color="#22C55E" />
      <stop offset="1" stop-color="#60A5FA" />
    </linearGradient>
    <filter id="soft" x="-20%" y="-20%" width="140%" height="140%">
      <feGaussianBlur stdDeviation="18" />
    </filter>
  </defs>

  <rect width="1280" height="720" rx="32" fill="url(#bg)" />

  <circle cx="1060" cy="170" r="120" fill="#22C55E" opacity="0.20" filter="url(#soft)" />
  <circle cx="1120" cy="520" r="160" fill="#60A5FA" opacity="0.16" filter="url(#soft)" />
  <circle cx="240" cy="520" r="210" fill="#A78BFA" opacity="0.12" filter="url(#soft)" />

  <g opacity="0.22">
    <path d="M120 140H1160" stroke="url(#accent)" stroke-width="2" />
    <path d="M120 220H1160" stroke="url(#accent)" stroke-width="2" />
    <path d="M120 300H1160" stroke="url(#accent)" stroke-width="2" />
    <path d="M120 380H1160" stroke="url(#accent)" stroke-width="2" />
    <path d="M120 460H1160" stroke="url(#accent)" stroke-width="2" />
    <path d="M120 540H1160" stroke="url(#accent)" stroke-width="2" />
  </g>

  <g>
    <rect x="120" y="140" width="540" height="340" rx="18" fill="#0F172A" stroke="#334155" stroke-width="2" />
    <rect x="150" y="175" width="480" height="270" rx="14" fill="#111827" stroke="#1F2937" stroke-width="2" />
    <rect x="150" y="175" width="480" height="46" rx="14" fill="#0B1220" />
    <circle cx="176" cy="198" r="6" fill="#EF4444" />
    <circle cx="198" cy="198" r="6" fill="#F59E0B" />
    <circle cx="220" cy="198" r="6" fill="#22C55E" />
    <text x="150" y="520" font-family="Inter, system-ui, -apple-system, Segoe UI, Roboto, Arial" font-size="16" fill="#9CA3AF">
      Smooth in OBS Preview
    </text>
  </g>

  <g>
    <rect x="740" y="140" width="420" height="520" rx="42" fill="#0B1220" stroke="#334155" stroke-width="2" />
    <rect x="770" y="190" width="360" height="400" rx="26" fill="#111827" stroke="#1F2937" stroke-width="2" />
    <rect x="770" y="190" width="360" height="64" rx="26" fill="#0F172A" />
    <rect x="820" y="610" width="260" height="16" rx="8" fill="#1F2937" />
    <text x="740" y="520" font-family="Inter, system-ui, -apple-system, Segoe UI, Roboto, Arial" font-size="16" fill="#9CA3AF">
      Lags on TikTok Live
    </text>
    <g transform="translate(812 330)">
      <path d="M0 0H316" stroke="#334155" stroke-width="2" stroke-linecap="round" />
      <path d="M0 40H316" stroke="#334155" stroke-width="2" stroke-linecap="round" />
      <path d="M0 80H316" stroke="#334155" stroke-width="2" stroke-linecap="round" />
      <path d="M0 120H316" stroke="#334155" stroke-width="2" stroke-linecap="round" />
      <path d="M0 160H316" stroke="#334155" stroke-width="2" stroke-linecap="round" />
      <path d="M0 24L28 40L56 16L84 40L112 18L140 40L168 22L196 40L224 16L252 40L280 20L308 40" stroke="#EF4444" stroke-width="4" stroke-linecap="round" stroke-linejoin="round" opacity="0.85" />
      <text x="0" y="-18" font-family="Inter, system-ui, -apple-system, Segoe UI, Roboto, Arial" font-size="14" fill="#F87171">
        Frame pacing / ingest stutter
      </text>
    </g>
  </g>

  <g>
    <text x="120" y="88" font-family="Inter, system-ui, -apple-system, Segoe UI, Roboto, Arial" font-size="40" font-weight="700" fill="#E5E7EB">
      OBS Preview Smooth, TikTok Live Lags?
    </text>
    <text x="120" y="120" font-family="Inter, system-ui, -apple-system, Segoe UI, Roboto, Arial" font-size="18" fill="#9CA3AF">
      Fix keyframes, bitrate headroom, double-encoding, and ingest stability (2025 checklist)
    </text>
  </g>

  <g>
    <rect x="120" y="584" width="520" height="76" rx="18" fill="#0F172A" stroke="#334155" stroke-width="2" />
    <g transform="translate(144 606)">
      <circle cx="10" cy="10" r="10" fill="#22C55E" opacity="0.9" />
      <text x="34" y="15" font-family="Inter, system-ui, -apple-system, Segoe UI, Roboto, Arial" font-size="16" fill="#E5E7EB">
        Baseline: 720x1280 @ 30 FPS · CBR · Keyframes=2
      </text>
      <text x="34" y="41" font-family="Inter, system-ui, -apple-system, Segoe UI, Roboto, Arial" font-size="14" fill="#9CA3AF">
        Then scale up only after the phone feed stays smooth
      </text>
    </g>
  </g>
</svg>

